<?xml version="1.0" encoding="utf-8"?>
<!-- Generator: Adobe Illustrator 24.0.1, SVG Export Plug-In . SVG Version: 6.00 Build 0)  -->
<svg version="1.1" id="Livello_1" xmlns="http://www.w3.org/2000/svg" xmlns:xlink="http://www.w3.org/1999/xlink" x="0px" y="0px"
	 viewBox="0 0 328.1 184.3" style="enable-background:new 0 0 328.1 184.3;" xml:space="preserve">
<style type="text/css">
	.st0{fill:#AB0033;}
</style>
<g>
	<path class="st0" d="M5.1,177c0.3,0.4,0.6,0.7,1,1c0.4,0.3,0.8,0.5,1.4,0.7c0.5,0.2,1.1,0.3,1.7,0.3c0.7,0,1.3-0.1,1.8-0.3
		c0.5-0.2,1-0.5,1.4-0.9c0.4-0.4,0.7-0.9,0.9-1.4c0.2-0.5,0.3-1.1,0.3-1.7c0-0.9-0.2-1.7-0.7-2.2c-0.5-0.5-1.1-1-1.8-1.4
		c-0.7-0.4-1.5-0.7-2.3-1c-0.8-0.3-1.6-0.7-2.3-1.1c-0.7-0.5-1.3-1-1.8-1.7c-0.5-0.7-0.7-1.6-0.7-2.8c0-0.8,0.1-1.6,0.5-2.3
		c0.3-0.7,0.7-1.3,1.3-1.8c0.6-0.5,1.3-0.9,2.1-1.2c0.8-0.3,1.7-0.4,2.7-0.4c1,0,1.8,0.1,2.5,0.3c0.7,0.2,1.4,0.6,2,1.1
		c-0.2,0.3-0.3,0.7-0.5,1.1c-0.1,0.4-0.2,0.9-0.4,1.4h-0.4c-0.1-0.3-0.2-0.6-0.4-0.9c-0.2-0.3-0.4-0.6-0.7-0.9
		c-0.3-0.3-0.6-0.5-1-0.7c-0.4-0.2-0.9-0.3-1.4-0.3c-0.6,0-1.1,0.1-1.5,0.3c-0.5,0.2-0.9,0.4-1.2,0.8c-0.4,0.3-0.6,0.7-0.8,1.2
		c-0.2,0.5-0.3,1-0.3,1.5c0,0.9,0.2,1.7,0.7,2.2c0.5,0.5,1.1,1,1.8,1.4c0.7,0.4,1.5,0.7,2.3,1c0.8,0.3,1.6,0.6,2.3,1.1
		c0.7,0.4,1.3,1,1.8,1.6c0.5,0.7,0.7,1.5,0.7,2.6c0,0.9-0.2,1.8-0.5,2.6c-0.3,0.8-0.8,1.5-1.4,2.1c-0.6,0.6-1.4,1.1-2.3,1.4
		c-0.9,0.3-1.9,0.5-3.1,0.5c-1.2,0-2.2-0.2-3-0.5c-0.8-0.3-1.4-0.7-1.9-1.1c0.2-0.5,0.3-0.9,0.4-1.2c0.1-0.4,0.1-0.8,0.2-1.4h0.4
		C4.6,176.2,4.8,176.6,5.1,177"/>
	<path class="st0" d="M24.5,160.7c-0.5,0-1.1,0-1.6,0c-0.6,0-1.1,0-1.7,0.1c-0.6,0-1.1,0.1-1.7,0.1c-0.5,0-1,0.1-1.4,0.2
		c0.1-0.4,0.2-0.7,0.2-1c0-0.2,0-0.5-0.2-0.9c1.3,0,2.6,0.1,3.9,0.1c1.3,0,2.6,0,3.9,0c1.3,0,2.6,0,3.9,0c1.3,0,2.6-0.1,3.9-0.1
		c-0.1,0.4-0.2,0.7-0.2,1c0,0.3,0.1,0.6,0.2,0.9c-0.4-0.1-0.9-0.1-1.4-0.2c-0.5,0-1.1-0.1-1.7-0.1c-0.6,0-1.1-0.1-1.7-0.1
		c-0.6,0-1.1,0-1.6,0c-0.1,2.1-0.1,4.1-0.1,6.2v5.2c0,1.3,0,2.6,0.1,3.9c0.1,1.3,0.1,2.5,0.2,3.8c-0.5,0-1-0.1-1.5-0.1
		c-0.5,0-1,0-1.5,0.1c0.1-1.2,0.1-2.5,0.2-3.8c0-1.3,0.1-2.6,0.1-3.9v-5.2C24.5,164.8,24.5,162.8,24.5,160.7"/>
	<path class="st0" d="M37.3,163c-0.1-1.3-0.1-2.6-0.2-3.9c0.6,0,1.2,0.1,1.7,0.1c0.6,0,1.1,0,1.7,0c0.6,0,1.2,0,1.7-0.1
		c0.6,0,1.1-0.1,1.7-0.1c0.8,0,1.6,0.1,2.4,0.2c0.8,0.2,1.4,0.4,2,0.8c0.6,0.4,1,0.9,1.4,1.5c0.3,0.6,0.5,1.4,0.5,2.3
		c0,1-0.2,1.8-0.6,2.5c-0.4,0.7-1,1.3-1.6,1.7c-0.6,0.5-1.3,0.8-2,1.1c-0.7,0.3-1.4,0.4-1.9,0.5c0.2,0.3,0.6,0.7,1,1.3
		c0.4,0.5,0.9,1.1,1.4,1.8c0.5,0.7,1.1,1.3,1.6,2c0.6,0.7,1.1,1.4,1.6,2c0.5,0.7,1,1.2,1.5,1.8c0.5,0.5,0.8,1,1.1,1.2
		c-0.3,0-0.6-0.1-0.9-0.1h-0.9h-0.9c-0.3,0-0.6,0-0.9,0.1c-0.3-0.4-0.8-1.1-1.4-1.9c-0.6-0.8-1.3-1.7-2-2.7c-0.7-1-1.5-1.9-2.3-2.9
		c-0.8-1-1.5-1.8-2.1-2.4h-1.1v2.2c0,1.3,0,2.6,0.1,3.9c0,1.3,0.1,2.5,0.2,3.8c-0.5,0-1-0.1-1.5-0.1s-1,0-1.5,0.1
		c0.1-1.2,0.1-2.5,0.2-3.8c0-1.3,0.1-2.6,0.1-3.9v-5.2C37.3,165.6,37.3,164.3,37.3,163 M40.7,168.8c0.3,0,0.7,0,1.1,0
		c0.6,0,1.3-0.1,1.9-0.2c0.7-0.1,1.3-0.4,1.8-0.7c0.6-0.4,1-0.8,1.4-1.4c0.4-0.6,0.6-1.3,0.6-2.2c0-0.8-0.1-1.4-0.4-1.9
		c-0.3-0.5-0.7-0.9-1.1-1.2c-0.5-0.3-1-0.5-1.5-0.6c-0.5-0.1-1.1-0.2-1.6-0.2c-0.7,0-1.3,0-1.7,0c-0.5,0-0.9,0.1-1.2,0.1
		c0,1.1-0.1,2.2-0.1,3.3c0,1.1-0.1,2.2-0.1,3.2v1.7C40.1,168.7,40.4,168.7,40.7,168.8"/>
	<path class="st0" d="M71.6,162.3c0-1.5-0.1-2.6-0.1-3.2c0.2,0,0.4,0.1,0.6,0.1c0.2,0,0.4,0,0.6,0c0.3,0,0.6,0,0.9-0.1
		c-0.1,0.7-0.1,1.5-0.2,2.5c-0.1,1-0.1,2-0.2,3.1c0,1.1-0.1,2.3-0.1,3.4c0,1.2-0.1,2.3-0.1,3.4c0,1.3-0.2,2.5-0.6,3.6
		c-0.4,1.1-0.9,2-1.7,2.7c-0.7,0.7-1.6,1.3-2.7,1.7c-1.1,0.4-2.3,0.6-3.6,0.6c-3,0-5.2-0.7-6.6-2c-1.4-1.4-2-3.5-2-6.5
		c0-0.9,0-1.8,0.1-2.5c0-0.7,0.1-1.5,0.1-2.2c0-1.7,0-3.2-0.1-4.5c0-1.3-0.1-2.4-0.1-3.3c0.2,0,0.5,0.1,0.8,0.1c0.3,0,0.5,0,0.8,0
		c0.2,0,0.4,0,0.6,0c0.2,0,0.4-0.1,0.6-0.1c0,0.4-0.1,1-0.1,1.7c0,0.7-0.1,1.5-0.1,2.4c0,0.9-0.1,1.9-0.1,2.9c0,1,0,2.1,0,3.2
		c0,0.7,0,1.4,0,2.1c0,0.7,0.1,1.4,0.2,2.1c0.1,0.7,0.3,1.4,0.6,2c0.3,0.6,0.7,1.2,1.2,1.7c0.5,0.5,1.1,0.8,1.9,1.1
		c0.8,0.3,1.7,0.4,2.8,0.4c1.1,0,2-0.2,2.8-0.5c0.8-0.3,1.4-0.7,1.8-1.3c0.5-0.5,0.9-1.1,1.1-1.8c0.3-0.7,0.5-1.4,0.6-2.1
		c0.1-0.7,0.2-1.5,0.2-2.2c0-0.7,0-1.4,0-2C71.6,166.1,71.6,163.9,71.6,162.3"/>
	<path class="st0" d="M83.7,160.7c-0.5,0-1.1,0-1.6,0c-0.6,0-1.1,0-1.7,0.1c-0.6,0-1.1,0.1-1.7,0.1c-0.5,0-1,0.1-1.4,0.2
		c0.1-0.4,0.2-0.7,0.2-1c0-0.2-0.1-0.5-0.2-0.9c1.3,0,2.6,0.1,3.9,0.1c1.3,0,2.6,0,3.9,0c1.3,0,2.6,0,3.9,0c1.3,0,2.6-0.1,3.9-0.1
		c-0.1,0.4-0.1,0.7-0.1,1c0,0.3,0.1,0.6,0.1,0.9c-0.4-0.1-0.9-0.1-1.4-0.2c-0.5,0-1.1-0.1-1.7-0.1c-0.6,0-1.1-0.1-1.7-0.1
		c-0.6,0-1.1,0-1.6,0c-0.1,2.1-0.1,4.1-0.1,6.2v5.2c0,1.3,0,2.6,0.1,3.9c0.1,1.3,0.1,2.5,0.2,3.8c-0.5,0-1-0.1-1.5-0.1
		c-0.5,0-1,0-1.5,0.1c0.1-1.2,0.1-2.5,0.2-3.8c0-1.3,0.1-2.6,0.1-3.9v-5.2C83.8,164.8,83.8,162.8,83.7,160.7"/>
	<path class="st0" d="M100.7,160.7c-0.5,0-1.1,0-1.6,0c-0.6,0-1.1,0-1.7,0.1c-0.6,0-1.1,0.1-1.7,0.1c-0.5,0-1,0.1-1.4,0.2
		c0.1-0.4,0.2-0.7,0.2-1c0-0.2,0-0.5-0.2-0.9c1.3,0,2.6,0.1,3.9,0.1c1.3,0,2.6,0,3.9,0c1.3,0,2.6,0,3.9,0c1.3,0,2.6-0.1,3.9-0.1
		c-0.1,0.4-0.2,0.7-0.2,1c0,0.3,0.1,0.6,0.2,0.9c-0.4-0.1-0.9-0.1-1.4-0.2c-0.5,0-1.1-0.1-1.7-0.1c-0.6,0-1.1-0.1-1.7-0.1
		c-0.6,0-1.1,0-1.6,0c-0.1,2.1-0.1,4.1-0.1,6.2v5.2c0,1.3,0,2.6,0.1,3.9c0.1,1.3,0.1,2.5,0.2,3.8c-0.5,0-1-0.1-1.5-0.1
		c-0.5,0-1,0-1.5,0.1c0.1-1.2,0.1-2.5,0.2-3.8c0-1.3,0.1-2.6,0.1-3.9v-5.2C100.8,164.8,100.8,162.8,100.7,160.7"/>
	<path class="st0" d="M129.2,162.3c0-1.5-0.1-2.6-0.1-3.2c0.2,0,0.4,0.1,0.6,0.1c0.2,0,0.4,0,0.6,0c0.3,0,0.6,0,0.9-0.1
		c-0.1,0.7-0.1,1.5-0.2,2.5c-0.1,1-0.1,2-0.2,3.1c0,1.1-0.1,2.3-0.1,3.4c0,1.2-0.1,2.3-0.1,3.4c0,1.3-0.2,2.5-0.6,3.6
		c-0.4,1.1-0.9,2-1.7,2.7c-0.7,0.7-1.6,1.3-2.7,1.7c-1.1,0.4-2.3,0.6-3.6,0.6c-3,0-5.2-0.7-6.6-2c-1.4-1.4-2-3.5-2-6.5
		c0-0.9,0-1.8,0.1-2.5c0-0.7,0.1-1.5,0.1-2.2c0-1.7,0-3.2-0.1-4.5c0-1.3-0.1-2.4-0.1-3.3c0.2,0,0.5,0.1,0.8,0.1c0.3,0,0.5,0,0.8,0
		c0.2,0,0.4,0,0.6,0c0.2,0,0.4-0.1,0.6-0.1c0,0.4-0.1,1-0.1,1.7c0,0.7-0.1,1.5-0.1,2.4c0,0.9-0.1,1.9-0.1,2.9c0,1,0,2.1,0,3.2
		c0,0.7,0,1.4,0,2.1c0,0.7,0.1,1.4,0.2,2.1c0.1,0.7,0.3,1.4,0.6,2c0.3,0.6,0.7,1.2,1.2,1.7c0.5,0.5,1.1,0.8,1.9,1.1
		c0.8,0.3,1.7,0.4,2.8,0.4c1.1,0,2-0.2,2.8-0.5c0.8-0.3,1.4-0.7,1.8-1.3c0.5-0.5,0.9-1.1,1.1-1.8c0.3-0.7,0.5-1.4,0.6-2.1
		c0.1-0.7,0.2-1.5,0.2-2.2c0-0.7,0-1.4,0-2C129.3,166.1,129.2,163.9,129.2,162.3"/>
	<path class="st0" d="M137.2,163c-0.1-1.3-0.1-2.6-0.2-3.9c0.6,0,1.2,0.1,1.7,0.1c0.6,0,1.1,0,1.7,0c0.6,0,1.2,0,1.7-0.1
		c0.6,0,1.1-0.1,1.7-0.1c0.8,0,1.6,0.1,2.4,0.2c0.8,0.2,1.4,0.4,2,0.8c0.6,0.4,1,0.9,1.4,1.5c0.3,0.6,0.5,1.4,0.5,2.3
		c0,1-0.2,1.8-0.6,2.5c-0.4,0.7-1,1.3-1.6,1.7c-0.6,0.5-1.3,0.8-2,1.1c-0.7,0.3-1.4,0.4-1.9,0.5c0.2,0.3,0.6,0.7,1,1.3
		c0.4,0.5,0.9,1.1,1.4,1.8c0.5,0.7,1.1,1.3,1.6,2c0.6,0.7,1.1,1.4,1.6,2c0.5,0.7,1,1.2,1.5,1.8c0.5,0.5,0.8,1,1.1,1.2
		c-0.3,0-0.6-0.1-0.9-0.1h-0.9h-0.9c-0.3,0-0.6,0-0.9,0.1c-0.3-0.4-0.8-1.1-1.4-1.9c-0.6-0.8-1.3-1.7-2-2.7c-0.7-1-1.5-1.9-2.3-2.9
		c-0.8-1-1.5-1.8-2.1-2.4h-1.1v2.2c0,1.3,0,2.6,0.1,3.9c0,1.3,0.1,2.5,0.2,3.8c-0.5,0-1-0.1-1.5-0.1s-1,0-1.5,0.1
		c0.1-1.2,0.1-2.5,0.2-3.8c0-1.3,0.1-2.6,0.1-3.9v-5.2C137.3,165.6,137.2,164.3,137.2,163 M140.6,168.8c0.3,0,0.7,0,1.1,0
		c0.6,0,1.3-0.1,1.9-0.2c0.7-0.1,1.3-0.4,1.8-0.7c0.6-0.4,1-0.8,1.4-1.4c0.4-0.6,0.6-1.3,0.6-2.2c0-0.8-0.1-1.4-0.4-1.9
		c-0.3-0.5-0.7-0.9-1.1-1.2c-0.5-0.3-1-0.5-1.5-0.6c-0.5-0.1-1.1-0.2-1.6-0.2c-0.7,0-1.3,0-1.7,0c-0.5,0-0.9,0.1-1.2,0.1
		c0,1.1-0.1,2.2-0.1,3.3c0,1.1-0.1,2.2-0.1,3.2v1.7C140,168.7,140.3,168.7,140.6,168.8"/>
	<path class="st0" d="M155.8,163c-0.1-1.3-0.1-2.6-0.2-3.8c0.9,0,1.8,0.1,2.7,0.1c0.9,0,1.8,0,2.7,0c0.9,0,1.8,0,2.7,0
		c0.9,0,1.8-0.1,2.7-0.1c-0.1,0.3-0.1,0.6-0.1,0.9c0,0.3,0,0.6,0.1,0.9c-0.6,0-1.2-0.1-1.8-0.1c-0.5,0-1.1-0.1-1.7-0.1
		c-0.6,0-1.2-0.1-1.9-0.1c-0.7,0-1.5,0-2.5,0c0,0.6,0,1.3-0.1,1.8c0,0.6,0,1.2,0,2c0,0.8,0,1.5,0,2.3c0,0.7,0,1.3,0,1.7
		c0.9,0,1.7,0,2.4,0c0.7,0,1.3,0,1.9-0.1c0.6,0,1.1-0.1,1.6-0.1c0.5,0,1-0.1,1.4-0.1c-0.1,0.3-0.1,0.6-0.1,0.9c0,0.3,0,0.6,0.1,0.9
		c-0.5-0.1-1.1-0.1-1.8-0.2c-0.7,0-1.4-0.1-2.1-0.1c-0.7,0-1.3,0-2,0c-0.6,0-1.1,0-1.5,0c0,0.2,0,0.4,0,0.6c0,0.2,0,0.5,0,0.8v1.2
		v1.8c0,1.1,0,2.1,0,2.8c0,0.7,0,1.3,0,1.7h2.1c0.8,0,1.5,0,2.2,0c0.7,0,1.4-0.1,2.1-0.1c0.7,0,1.2-0.1,1.7-0.2
		c0,0.1-0.1,0.3-0.1,0.5c0,0.2,0,0.3,0,0.5c0,0.3,0,0.6,0.1,0.8c-0.9,0-1.8-0.1-2.7-0.1h-2.7h-2.7c-0.9,0-1.8,0-2.7,0.1
		c0.1-1.3,0.1-2.6,0.2-3.8c0-1.3,0.1-2.6,0.1-3.9v-5.2C155.9,165.6,155.9,164.3,155.8,163"/>
	<path class="st0" d="M179.8,177c0.3,0.4,0.6,0.7,1,1c0.4,0.3,0.8,0.5,1.4,0.7c0.5,0.2,1.1,0.3,1.7,0.3c0.7,0,1.3-0.1,1.8-0.3
		c0.5-0.2,1-0.5,1.4-0.9c0.4-0.4,0.7-0.9,0.9-1.4c0.2-0.5,0.3-1.1,0.3-1.7c0-0.9-0.2-1.7-0.7-2.2c-0.5-0.5-1.1-1-1.8-1.4
		c-0.7-0.4-1.5-0.7-2.3-1c-0.8-0.3-1.6-0.7-2.3-1.1c-0.7-0.5-1.3-1-1.8-1.7c-0.5-0.7-0.7-1.6-0.7-2.8c0-0.8,0.1-1.6,0.5-2.3
		c0.3-0.7,0.7-1.3,1.3-1.8c0.6-0.5,1.3-0.9,2.1-1.2c0.8-0.3,1.7-0.4,2.7-0.4c1,0,1.8,0.1,2.5,0.3c0.7,0.2,1.4,0.6,2,1.1
		c-0.2,0.3-0.3,0.7-0.5,1.1c-0.1,0.4-0.2,0.9-0.4,1.4h-0.4c-0.1-0.3-0.2-0.6-0.4-0.9c-0.2-0.3-0.4-0.6-0.7-0.9
		c-0.3-0.3-0.6-0.5-1-0.7c-0.4-0.2-0.9-0.3-1.4-0.3c-0.6,0-1.1,0.1-1.5,0.3c-0.5,0.2-0.9,0.4-1.2,0.8c-0.4,0.3-0.6,0.7-0.8,1.2
		c-0.2,0.5-0.3,1-0.3,1.5c0,0.9,0.2,1.7,0.7,2.2c0.5,0.5,1.1,1,1.8,1.4c0.7,0.4,1.5,0.7,2.3,1c0.8,0.3,1.6,0.6,2.3,1.1
		c0.7,0.4,1.3,1,1.8,1.6c0.5,0.7,0.7,1.5,0.7,2.6c0,0.9-0.2,1.8-0.5,2.6c-0.3,0.8-0.8,1.5-1.4,2.1c-0.6,0.6-1.4,1.1-2.3,1.4
		c-0.9,0.3-1.9,0.5-3.1,0.5c-1.2,0-2.2-0.2-3-0.5c-0.8-0.3-1.4-0.7-1.9-1.1c0.2-0.5,0.3-0.9,0.4-1.2c0.1-0.4,0.1-0.8,0.2-1.4h0.4
		C179.3,176.2,179.5,176.6,179.8,177"/>
	<path class="st0" d="M211.7,179.8c-0.3,0-0.5-0.1-0.8-0.1h-0.8h-0.8c-0.3,0-0.5,0-0.8,0.1c-0.1-0.5-0.3-1-0.6-1.7
		c-0.2-0.7-0.5-1.3-0.8-2c-0.3-0.7-0.6-1.4-0.9-2.2c-0.3-0.7-0.6-1.4-0.8-2.1c-0.6,0-1.3,0-2,0c-0.7,0-1.3,0-2,0c-0.6,0-1.2,0-1.8,0
		c-0.6,0-1.2,0-1.8,0c-0.6,1.6-1.2,3.1-1.7,4.5c-0.5,1.4-0.9,2.6-1.2,3.5c-0.3,0-0.7-0.1-1.1-0.1c-0.4,0-0.8,0-1.1,0.1
		c1.6-3.5,3.2-7,4.7-10.5c1.5-3.5,3.1-7,4.7-10.6h0.6c0.5,1.2,1,2.4,1.6,3.8c0.6,1.4,1.1,2.7,1.7,4.1c0.6,1.4,1.2,2.8,1.7,4.1
		c0.6,1.4,1.1,2.6,1.6,3.8c0.5,1.2,1,2.2,1.4,3.1C211.1,178.6,211.4,179.3,211.7,179.8 M198.4,170.4c0.5,0,1.1,0,1.6,0
		c0.6,0,1.1,0,1.6,0c0.6,0,1.1,0,1.7,0c0.6,0,1.1,0,1.7,0l-3.3-7.6L198.4,170.4z"/>
	<path class="st0" d="M225,172c-2.6-2.8-5.2-5.6-7.8-8.3c0,0.6,0,1.3-0.1,2.3c0,0.9,0,2.2,0,3.8c0,0.4,0,0.9,0,1.6c0,0.6,0,1.3,0,2
		c0,0.7,0,1.4,0,2.1c0,0.7,0,1.4,0.1,2c0,0.6,0,1.1,0.1,1.6c0,0.4,0,0.8,0.1,0.9c-0.3,0-0.7-0.1-1.1-0.1c-0.4,0-0.8,0-1.1,0.1
		c0-0.2,0.1-0.6,0.1-1.1c0.1-0.5,0.1-1.2,0.1-1.9c0-0.8,0.1-1.6,0.1-2.5c0-0.9,0.1-1.8,0.1-2.6c0-0.9,0.1-1.7,0.1-2.6
		c0-0.8,0-1.6,0-2.3c0-1.9,0-3.6,0-5c0-1.4,0-2.4-0.1-3.1h0.5c1.2,1.3,2.5,2.7,3.9,4.3c1.4,1.5,2.8,3,4.1,4.5
		c1.4,1.5,2.7,2.9,3.9,4.2c1.2,1.3,2.3,2.4,3.2,3.4v-4.1c0-2.1,0-4.2,0-6.1c0-2-0.1-3.9-0.2-5.6c0.4,0.1,0.7,0.2,1,0.2
		c0.2,0,0.6-0.1,1-0.2c0,0.4-0.1,1.1-0.1,2c0,0.9-0.1,1.8-0.1,2.8c-0.1,1-0.1,2-0.1,2.9c0,1-0.1,1.7-0.1,2.3v1.8c0,0.7,0,1.4,0,2.1
		c0,0.7,0,1.5,0,2.2c0,0.8,0,1.5,0,2.1c0,0.7,0,1.2,0,1.7v1h-0.4C230,177.5,227.6,174.8,225,172"/>
	<path class="st0" d="M239,163c-0.1-1.3-0.1-2.6-0.2-3.9c0.3,0,0.5,0.1,0.8,0.1c0.2,0,0.5,0,0.7,0c0.2,0,0.5,0,0.7,0
		c0.2,0,0.5-0.1,0.8-0.1c-0.1,1.3-0.1,2.6-0.2,3.9c-0.1,1.3-0.1,2.6-0.1,3.9v5.2c0,1.3,0,2.6,0.1,3.9c0,1.3,0.1,2.5,0.2,3.8
		c-0.5,0-1-0.1-1.5-0.1c-0.5,0-1,0-1.5,0.1c0.1-1.2,0.1-2.5,0.2-3.8c0-1.3,0.1-2.6,0.1-3.9v-5.2C239.1,165.6,239.1,164.3,239,163"/>
	<path class="st0" d="M251.8,160.7c-0.5,0-1.1,0-1.6,0c-0.6,0-1.1,0-1.7,0.1c-0.6,0-1.1,0.1-1.7,0.1c-0.5,0-1,0.1-1.4,0.2
		c0.1-0.4,0.1-0.7,0.1-1c0-0.2,0-0.5-0.1-0.9c1.3,0,2.6,0.1,3.9,0.1c1.3,0,2.6,0,3.9,0c1.3,0,2.6,0,3.9,0c1.3,0,2.6-0.1,3.9-0.1
		c-0.1,0.4-0.2,0.7-0.2,1c0,0.3,0.1,0.6,0.2,0.9c-0.4-0.1-0.9-0.1-1.4-0.2c-0.5,0-1.1-0.1-1.7-0.1c-0.6,0-1.1-0.1-1.7-0.1
		c-0.6,0-1.1,0-1.6,0c-0.1,2.1-0.1,4.1-0.1,6.2v5.2c0,1.3,0,2.6,0.1,3.9c0.1,1.3,0.1,2.5,0.2,3.8c-0.5,0-1-0.1-1.5-0.1
		c-0.5,0-1,0-1.5,0.1c0.1-1.2,0.1-2.5,0.2-3.8c0-1.3,0.1-2.6,0.1-3.9v-5.2C251.9,164.8,251.9,162.8,251.8,160.7"/>
	<path class="st0" d="M281.3,179.8c-0.3,0-0.5-0.1-0.8-0.1h-0.8h-0.8c-0.3,0-0.5,0-0.8,0.1c-0.1-0.5-0.3-1-0.6-1.7
		c-0.2-0.7-0.5-1.3-0.8-2c-0.3-0.7-0.6-1.4-0.9-2.2c-0.3-0.7-0.6-1.4-0.8-2.1c-0.6,0-1.3,0-2,0c-0.7,0-1.3,0-2,0c-0.6,0-1.2,0-1.8,0
		c-0.6,0-1.2,0-1.8,0c-0.6,1.6-1.2,3.1-1.7,4.5c-0.5,1.4-0.9,2.6-1.2,3.5c-0.3,0-0.7-0.1-1.1-0.1c-0.4,0-0.8,0-1.1,0.1
		c1.6-3.5,3.2-7,4.7-10.5c1.5-3.5,3.1-7,4.7-10.6h0.6c0.5,1.2,1,2.4,1.6,3.8c0.6,1.4,1.1,2.7,1.7,4.1c0.6,1.4,1.2,2.8,1.7,4.1
		c0.6,1.4,1.1,2.6,1.6,3.8c0.5,1.2,1,2.2,1.4,3.1C280.7,178.6,281,179.3,281.3,179.8 M268,170.4c0.5,0,1.1,0,1.6,0
		c0.6,0,1.1,0,1.6,0c0.6,0,1.1,0,1.7,0c0.6,0,1.1,0,1.7,0l-3.3-7.6L268,170.4z"/>
	<path class="st0" d="M284.9,163c0-1.3-0.1-2.6-0.2-3.9c0.6,0,1.2,0.1,1.7,0.1c0.6,0,1.1,0,1.7,0c0.6,0,1.2,0,1.7-0.1
		c0.6,0,1.1-0.1,1.7-0.1c0.8,0,1.6,0.1,2.4,0.2c0.8,0.2,1.4,0.4,2,0.8c0.6,0.4,1,0.9,1.4,1.5c0.3,0.6,0.5,1.4,0.5,2.3
		c0,1-0.2,1.8-0.6,2.5c-0.4,0.7-1,1.3-1.6,1.7c-0.6,0.5-1.3,0.8-2,1.1c-0.7,0.3-1.4,0.4-1.9,0.5c0.2,0.3,0.6,0.7,1,1.3
		c0.4,0.5,0.9,1.1,1.4,1.8c0.5,0.7,1.1,1.3,1.6,2c0.6,0.7,1.1,1.4,1.6,2c0.5,0.7,1,1.2,1.5,1.8c0.5,0.5,0.8,1,1.1,1.2
		c-0.3,0-0.6-0.1-0.9-0.1h-0.9h-0.9c-0.3,0-0.6,0-0.9,0.1c-0.3-0.4-0.8-1.1-1.4-1.9c-0.6-0.8-1.3-1.7-2-2.7c-0.7-1-1.5-1.9-2.3-2.9
		c-0.8-1-1.5-1.8-2.1-2.4h-1.1v2.2c0,1.3,0,2.6,0.1,3.9c0.1,1.3,0.1,2.5,0.2,3.8c-0.5,0-1-0.1-1.5-0.1c-0.5,0-1,0-1.5,0.1
		c0.1-1.2,0.1-2.5,0.2-3.8c0.1-1.3,0.1-2.6,0.1-3.9v-5.2C285,165.6,285,164.3,284.9,163 M288.4,168.8c0.3,0,0.7,0,1.1,0
		c0.6,0,1.3-0.1,1.9-0.2c0.7-0.1,1.3-0.4,1.8-0.7c0.6-0.4,1-0.8,1.4-1.4c0.4-0.6,0.6-1.3,0.6-2.2c0-0.8-0.1-1.4-0.4-1.9
		c-0.3-0.5-0.7-0.9-1.1-1.2c-0.5-0.3-1-0.5-1.5-0.6c-0.5-0.1-1.1-0.2-1.6-0.2c-0.7,0-1.3,0-1.7,0c-0.5,0-0.9,0.1-1.2,0.1
		c0,1.1-0.1,2.2-0.1,3.3c0,1.1-0.1,2.2-0.1,3.2v1.7C287.8,168.7,288.1,168.7,288.4,168.8"/>
	<path class="st0" d="M303.6,163c0-1.3-0.1-2.6-0.2-3.9c0.3,0,0.5,0.1,0.8,0.1c0.2,0,0.5,0,0.7,0c0.2,0,0.5,0,0.7,0
		c0.2,0,0.5-0.1,0.8-0.1c-0.1,1.3-0.1,2.6-0.2,3.9c-0.1,1.3-0.1,2.6-0.1,3.9v5.2c0,1.3,0,2.6,0.1,3.9c0.1,1.3,0.1,2.5,0.2,3.8
		c-0.5,0-1-0.1-1.5-0.1c-0.5,0-1,0-1.5,0.1c0.1-1.2,0.1-2.5,0.2-3.8c0.1-1.3,0.1-2.6,0.1-3.9v-5.2
		C303.6,165.6,303.6,164.3,303.6,163"/>
	<path class="st0" d="M312.2,163c-0.1-1.3-0.1-2.6-0.2-3.8c0.9,0,1.8,0.1,2.7,0.1c0.9,0,1.8,0,2.7,0c0.9,0,1.8,0,2.7,0
		c0.9,0,1.8-0.1,2.7-0.1c-0.1,0.3-0.1,0.6-0.1,0.9c0,0.3,0,0.6,0.1,0.9c-0.6,0-1.2-0.1-1.8-0.1c-0.5,0-1.1-0.1-1.7-0.1
		c-0.6,0-1.2-0.1-1.9-0.1c-0.7,0-1.5,0-2.5,0c0,0.6,0,1.3-0.1,1.8c0,0.6,0,1.2,0,2c0,0.8,0,1.5,0,2.3c0,0.7,0,1.3,0,1.7
		c0.9,0,1.7,0,2.4,0c0.7,0,1.3,0,1.9-0.1c0.6,0,1.1-0.1,1.6-0.1c0.5,0,1-0.1,1.4-0.1c-0.1,0.3-0.1,0.6-0.1,0.9c0,0.3,0,0.6,0.1,0.9
		c-0.5-0.1-1.1-0.1-1.8-0.2c-0.7,0-1.4-0.1-2.1-0.1c-0.7,0-1.3,0-2,0c-0.6,0-1.1,0-1.5,0c0,0.2,0,0.4,0,0.6c0,0.2,0,0.5,0,0.8v1.2
		v1.8c0,1.1,0,2.1,0,2.8c0,0.7,0,1.3,0,1.7h2.1c0.8,0,1.5,0,2.2,0c0.7,0,1.4-0.1,2.1-0.1c0.7,0,1.2-0.1,1.7-0.2
		c0,0.1-0.1,0.3-0.1,0.5c0,0.2,0,0.3,0,0.5c0,0.3,0,0.6,0.1,0.8c-0.9,0-1.8-0.1-2.7-0.1h-2.7h-2.7c-0.9,0-1.8,0-2.7,0.1
		c0.1-1.3,0.1-2.6,0.2-3.8c0-1.3,0.1-2.6,0.1-3.9v-5.2C312.3,165.6,312.2,164.3,312.2,163"/>
	<path class="st0" d="M125.4,69.5c-0.1,0-1.7-0.1-5,5.9l-1,2l0.9-14.5C120.4,62.9,123.3,67.7,125.4,69.5 M97.1,103.9
		c0.1,0,1.5,0.3,1.8-0.6c0.3-0.9,0.4-2.2,1-4.8c0,0,3.7,0.9,5.5-1.6c0.5-0.7-1.1-3.8-2.2-6.7c-1-2.9-0.5-2.4-0.5-4
		c0-1.3,3.3-1.8,3.3-3.2c0-1.4-1.4-6.6-1.5-7.7c-0.2-1.8,0-11.3-5.7-16c0,0-2.2-9.4-18.8-9.1c0,0,0.4-1.1,0-1.5c0,0-0.4-0.3-0.8,1.4
		c0,0-14.2-0.5-17.6,11.2c0,0-5.6,0.8-6.4,9.5c-0.9,8.7-2.6,3.3-2.6,11c0,0-6,2.6-7.5,4.1c0,0-11-3.5-11.3-3.8c0,0-0.8,0-5,8.9
		c0,0-4.3-0.4-6.7,0.8c0,0,0.2,8.2-1.2,11.7c-1.4,3.5-1.1,3.8-1.1,3.8s-12.5,13-15.5,40h124.6c0,0,0.3-31.8-1.3-35
		c-1.6-3.3,1.2-6.2-2.2-8.4c0,0,2.4-1.6,1.9-5.7c-0.5-4.1,2.8-3,1.4-9.8c-1.2-5.6-1.4-6.2-1.5-6.2c0,0,0,0,0,0s0,0,0,0
		c0.2-0.2,2.7-3.6,0.6-5.6c-1.8-1.8-2.9-1.2-3.2-1c0,0,0,0,0,0c0,0,0,0,0,0c0.8-0.6,7.5-6.3,7.5-7.1c0-0.9,1.3-1.7-1.1-4.9
		c-2.4-3.2-7.1-7-7.1-12.8V45c0,0,3.8,0.9,4.1-1.7c0.2-2.6-1.4-5-3.6-4.1l1.4-8.1c0,0,2,1.7,2.9,0c0.9-1.7,0.3-2.2-0.5-3
		c0,0,0.9-1.4-0.2-1.8c-1.1-0.5-1.1-0.5-1.7,0.1c0,0-1.2-0.8-3.7-1.4c0,0-1.4-1.9-2-2.6c0,0,1.1-9,1.7-9.6c0.7-0.7,7-4.3,4.1-7.2
		C123.4,2.7,121,4,119.2,9c-1.8,5-2.3,6.8-3.7,14.4c0,0-5,1.6-6.3,4.3c-1.4,2.7,0.2,2.7,0.4,2.8c0.2,0.2,2.1,0.6,3.5-1.5
		c0,0,0.8-0.9,1.7-0.9c0,0,0.3,13.3,0.8,53.9c0,0-6.4,3.5-6.4,7.2c0,0-0.4,6.1,1.3,9.6c0,0-4.8,5.1-3.7,8.3c0,0-15.5,16.3-15.1,21
		c0,0-3.3-3.2-6.6-6.7c-3.3-3.5-6.7-7.3-7-8.4c0,0,4-0.5,6.3,0.2c2.4,0.7,3.7,0.4,4.7-0.6c0,0,2.8,1.5,4.8-0.5c2-2,0.8-3.5,1.4-4.8
		c0.6-1.3,0.6-1.4,1.9-2.1C97.3,105.2,97.5,104.9,97.1,103.9 M121.6,41.1c-0.4-1.2-2.9-4.3-2.6-6.1c0.3-1.8,1.1-7,1.1-7
		c1.2,0.4,3.9,2.2,3.9,2.2C123.4,31.7,121.6,41.1,121.6,41.1"/>
	<path class="st0" d="M143.7,121.4c0-8.5,0-10-0.1-11.7c-0.1-1.8-0.5-2.7-2.3-3.1c-0.4-0.1-1.4-0.2-1.8-0.2c-0.2,0-1.6-0.1-1.6-0.3
		c0-0.3,1.5-0.4,2.1-0.4c2.4,0,5.6,0.2,6,0.2c0.5,0,3.6-0.2,5.3-0.2c0.6,0,0.9,0.1,0.9,0.4c0,0.2-0.2,0.3-0.4,0.3
		c-0.4,0-0.7,0.1-1.4,0.2c-1.5,0.3-1.9,1.2-2,3.1c-0.1,1.7-0.1,3.3-0.1,11.7v3.3h0.2c0.9-1,10.7-11,12.7-13.1c1.5-1.6,2.9-3,2.9-3.9
		c0-0.7-0.3-1-0.7-1.1c-0.3-0.1-0.5-0.2-0.5-0.4c0-0.3,0.3-0.4,0.7-0.4c1.1,0,2.8,0.2,4.1,0.2c0.3,0,3.8-0.2,5.2-0.2
		c0.6,0,0.8,0.1,0.8,0.4c0,0.3-0.1,0.4-0.5,0.4c-0.8,0-2,0.3-3,0.8c-2.2,1-3.4,2.3-5.9,4.7c-1.4,1.3-10.8,10.5-11.9,11.9
		c1.4,1.6,12.7,13.2,14.9,15.3c4.6,4.2,5.5,5.1,8.1,6.2c1.4,0.6,3,0.7,3.4,0.7c0.4,0,0.7,0.1,0.7,0.3c0,0.3-0.3,0.4-1.2,0.4h-2.8
		c-1.5,0-2.5,0-3.7-0.1c-2.9-0.3-4.2-1.5-6.6-3.3c-2.4-2-14-14.4-16.6-17.6H148v5.3c0,5.2,0,9.5,0.3,11.8c0.2,1.6,0.5,2.8,2.1,3
		c0.8,0.1,1.6,0.2,2.1,0.2c0.3,0,0.4,0.2,0.4,0.3c0,0.3-0.3,0.4-0.9,0.4c-2.7,0-5.8-0.2-6.2-0.2c-0.4,0-3.6,0.2-5.2,0.2
		c-0.6,0-0.9-0.1-0.9-0.4c0-0.2,0.1-0.3,0.4-0.3c0.5,0,1.1-0.1,1.6-0.2c1.1-0.2,1.4-1.4,1.6-3c0.3-2.3,0.3-6.6,0.3-11.8V121.4z"/>
	<path class="st0" d="M199.1,112.7c0.6-1.5,0.8-1.8,1.1-1.8c0.5,0,0.6,0.7,1.1,1.7c0.9,2,8.5,21,11.5,28c1.7,4.1,3,4.7,4.1,5
		c0.7,0.2,1.4,0.3,1.9,0.3c0.3,0,0.6,0.1,0.6,0.4c0,0.3-0.5,0.4-1.1,0.4c-0.7,0-4.2,0-7.5-0.1c-0.9-0.1-1.7-0.1-1.7-0.3
		c0-0.2,0.1-0.2,0.3-0.3c0.3-0.1,0.8-0.5,0.4-1.2l-4.3-10.6c-0.1-0.2-0.2-0.3-0.4-0.3h-11c-0.2,0-0.4,0.1-0.5,0.4l-2.7,7.4
		c-0.4,1.1-0.7,2.3-0.7,3.1c0,0.9,0.8,1.2,1.6,1.2h0.4c0.4,0,0.5,0.2,0.5,0.4c0,0.3-0.3,0.4-0.7,0.4c-1.1,0-3.7-0.2-4.3-0.2
		c-0.5,0-2.9,0.2-4.8,0.2c-0.6,0-0.9-0.1-0.9-0.4c0-0.2,0.2-0.4,0.4-0.4c0.3,0,1-0.1,1.4-0.1c2.2-0.3,3.1-1.9,4-4.2L199.1,112.7z
		 M204.4,132c0.2,0,0.2-0.1,0.2-0.3l-4.7-12.6c-0.3-0.7-0.5-0.7-0.8,0l-4.5,12.6c-0.1,0.2,0,0.3,0.2,0.3H204.4z"/>
	<path class="st0" d="M225.7,125.2c0-7.2,0-8.5-0.1-9.9c-0.1-1.6-0.4-2.3-2-2.6c-0.4-0.1-1.2-0.1-1.6-0.1c-0.2,0-0.4-0.2-0.4-0.4
		c0-0.3,0.2-0.4,0.8-0.4c2.2,0,5.4,0.1,5.6,0.1c0.5,0,4.5-0.1,6-0.1c3,0,6.4,0.3,8.9,2c1.2,0.9,3.3,3.1,3.3,6.3
		c0,3.4-1.4,6.7-5.9,10.5c3.9,4.9,7.2,9.1,10,11.9c2.6,2.6,4.1,3,5.3,3.2c0.9,0.2,1.4,0.2,1.7,0.2c0.3,0,0.4,0.2,0.4,0.4
		c0,0.3-0.3,0.4-1.1,0.4h-3c-2.7,0-3.9-0.3-5.1-0.9c-2.1-1.1-3.8-3.3-6.5-6.8c-2-2.5-4.1-5.5-5.2-6.7c-0.2-0.2-0.3-0.3-0.7-0.3
		l-6.1-0.1c-0.2,0-0.3,0.1-0.3,0.4v1.1c0,4.4,0,8,0.2,9.9c0.2,1.4,0.4,2.2,1.9,2.4c0.7,0.1,1.7,0.2,2.1,0.2c0.3,0,0.4,0.2,0.4,0.4
		c0,0.2-0.2,0.4-0.8,0.4c-2.6,0-5.6-0.2-5.9-0.2c-0.1,0-3.3,0.2-4.7,0.2c-0.5,0-0.8-0.1-0.8-0.4c0-0.2,0.1-0.4,0.4-0.4
		c0.4,0,1-0.1,1.5-0.2c0.9-0.2,1-1.1,1.3-2.4c0.3-1.9,0.3-5.5,0.3-10V125.2z M229.8,129.1c0,0.3,0.1,0.4,0.3,0.6
		c0.7,0.4,3.1,0.7,5.3,0.7c1.1,0,2.4-0.1,3.6-0.8c1.6-1.1,2.9-3.5,2.9-7.1c0-5.8-3.1-9.1-8.3-9.1c-1.4,0-2.9,0.2-3.4,0.3
		c-0.2,0.1-0.4,0.3-0.4,0.5V129.1z"/>
	<path class="st0" d="M276.4,111.2c10.8,0,18.9,6.6,18.9,17.3c0,10.3-7.7,18.8-19.2,18.8c-13.1,0-18.7-9.8-18.7-18.1
		C257.5,121.7,263.2,111.2,276.4,111.2 M277.5,145.4c4.3,0,12.9-2.3,12.9-15.6c0-11.1-6.7-16.9-14.3-16.9c-8,0-13.7,5-13.7,15
		C262.4,138.7,268.9,145.4,277.5,145.4"/>
	<path class="st0" d="M309.6,133.4c0,6.8,0.1,9.5,1,10.4c0.8,0.8,2.6,1.1,6.3,1.1c2.5,0,4.6-0.1,5.8-1.4c0.6-0.7,1-1.7,1.1-2.6
		c0-0.3,0.2-0.6,0.5-0.6c0.2,0,0.3,0.2,0.3,0.7c0,0.4-0.8,4-1.1,5.2c-0.1,0.2-0.6,0.3-0.6,0.3c-0.4,0.3-0.6,0.3-2.1,0.3
		c-3.4,0-6.1-0.1-8.3-0.2c-2.2-0.1-3.8-0.1-5.2-0.1c-0.2,0-1,0-2,0.1c-1,0.1-2,0.1-2.8,0.1c-0.5,0-0.8-0.1-0.8-0.4
		c0-0.2,0.1-0.4,0.4-0.4c0.4,0,1-0.1,1.5-0.2c0.9-0.2,1-1.1,1.2-2.4c0.3-1.9,0.3-5.5,0.3-10v-8.1c0-7.2,0-8.5-0.1-9.9
		c-0.1-1.6-0.4-2.3-2-2.5c-0.4-0.1-1.2-0.1-1.6-0.1c-0.2,0-0.4-0.2-0.4-0.4c0-0.3,0.2-0.4,0.8-0.4c2.2,0,5.2,0.1,5.4,0.1
		c0.2,0,3.8-0.1,5.3-0.1c0.5,0,0.8,0.1,0.8,0.4c0,0.2-0.2,0.3-0.4,0.3c-0.3,0-1,0.1-1.6,0.1c-1.4,0.3-1.7,1-1.8,2.6
		c-0.1,1.5-0.1,2.8-0.1,9.9V133.4z"/>
	<polygon class="st0" points="322.9,149.4 4.2,149.4 4.2,145.6 323.7,145.6 	"/>
</g>
</svg>
